SOURCE: Incendies LIMITED DVDRip XviD-DoNE

Synopsis:

A mother’s last wishes send twins Jeanne and Simon on a journey to Middle East in search of their tangled roots. Adapted from Wajdi Mouawad’s acclaimed play, Incendies tells the powerful and moving tale of two young adults’ voyage to the core of deep-rooted hatred, never-ending wars and enduring love.

Genre: Drama, Mystery, War
IMDB rating: 8.2/10 (6,593 Votes)
Directed by: Denis Villeneuve
Starring: Lubna Azabal, Mélissa Désormeaux-Poulin, Maxim Gaudette, Rémy Girard, Abdelghafour Elaaziz…
 
http://www.imdb.com/title/tt1255953


Audio: English, French, Arabic
Subs: Hardcoded English

TECH SPECS:

Format                           : AVI
Format/Info                      : Audio Video Interleave
File size                        : 798 MiB
Duration                         : 2h 5mn
Overall bit rate                 : 887 Kbps
Writing application              : VirtualDubMod 1.5.10.2 (build 2542/release)
Writing library                  : VirtualDubMod build 2542/release

Video
ID                               : 0
Format                           : MPEG-4 Visual
Format profile                   : Advanced Simple@L5
Format settings, BVOP            : 1
Format settings, QPel            : No
Format settings, GMC             : No warppoints
Format settings, Matrix          : Default (H.263)
Muxing mode                      : Packed bitstream
Codec ID                         : XVID
Codec ID/Hint                    : XviD
Duration                         : 2h 5mn
Bit rate                         : 432 Kbps
Width                            : 640 pixels
Height                           : 336 pixels
Display aspect ratio             : 1.905
Frame rate                       : 25.000 fps
Color space                      : YUV
Chroma subsampling               : 4:2:0
Bit depth                        : 8 bits
Scan type                        : Progressive
Compression mode                 : Lossy
Bits/(Pixel*Frame)               : 0.080
Stream size                      : 389 MiB (49%)
Writing library                  : XviD 62

Audio
ID                               : 1
Format                           : AC-3
Format/Info                      : Audio Coding 3
Mode extension                   : CM (complete main)
Codec ID                         : 2000
Duration                         : 2h 5mn
Bit rate mode                    : Constant
Bit rate                         : 448 Kbps
Channel(s)                       : 6 channels
Channel positions                : Front: L C R, Side: L R, LFE
Sampling rate                    : 48.0 KHz
Bit depth                        : 16 bits
Compression mode                 : Lossy
Stream size                      : 402 MiB (50%)
Alignment                        : Split accross interleaves
Interleave, duration             : 64 ms (1.60 video frames)
Interleave, preload duration     : 500 ms

SCREENS:
 
http://imghunt.org/images/15150898650030006493.png 
http://imghunt.org/images/04711665839433699175.png 
http://imghunt.org/images/57464912764182653529.png

SEED AND ENJOY!!!